<svg width="18" height="22" viewBox="0 0 18 22" fill="none" xmlns="http://www.w3.org/2000/svg">
<path d="M1.87709e-06 15.6001V5.58498C1.75886e-06 4.79199 -0.000982731 4.13921 0.0423194 3.60922C0.0865471 3.06798 0.1813 2.57004 0.419416 2.10271C0.788681 1.37808 1.37808 0.788681 2.10271 0.419416C2.57004 0.1813 3.06798 0.0865471 3.60922 0.0423194C4.13921 -0.000982731 4.79199 1.75885e-06 5.58498 1.87707e-06H8.67792L9.14341 0.000942267C9.58123 0.0044799 9.94357 0.0218023 10.2954 0.106266C10.5139 0.158729 10.7257 0.233208 10.9311 0.322556C10.974 0.338699 11.0155 0.357142 11.0552 0.378979C11.1756 0.436512 11.2947 0.498076 11.4088 0.567997C11.82 0.820035 12.1605 1.1692 12.6276 1.63628L15.697 4.70571C16.1641 5.17279 16.5132 5.51331 16.7653 5.92446C16.835 6.03832 16.8969 6.15696 16.9543 6.2771C16.9762 6.3168 16.9945 6.35838 17.0107 6.40124C17.1002 6.60689 17.1745 6.81913 17.227 7.03788C17.3396 7.50696 17.3333 7.99459 17.3333 8.65535V15.6001C17.3333 16.3931 17.3343 17.0459 17.291 17.5759C17.2467 18.1171 17.152 18.6151 16.9139 19.0824C16.5446 19.807 15.9552 20.3964 15.2306 20.7657C14.7632 21.0038 14.2653 21.0986 13.7241 21.1428C13.1941 21.1861 12.5413 21.1851 11.7483 21.1851H5.58498C4.79199 21.1851 4.13921 21.1861 3.60922 21.1428C3.06798 21.0986 2.57004 21.0038 2.10271 20.7657C1.37808 20.3964 0.78868 19.807 0.419416 19.0824C0.1813 18.6151 0.0865471 18.1171 0.0423194 17.5759C-0.000982734 17.0459 1.75886e-06 16.3931 1.87709e-06 15.6001ZM1.92592 15.6001C1.92592 16.4248 1.92626 16.9855 1.96166 17.4188C1.99615 17.841 2.05889 18.0572 2.13563 18.2078C2.32026 18.5701 2.61496 18.8648 2.97728 19.0495C3.12788 19.1262 3.34409 19.189 3.76626 19.2235C4.19963 19.2589 4.76031 19.2592 5.58498 19.2592H11.7483C12.573 19.2592 13.1336 19.2589 13.567 19.2235C13.9892 19.189 14.2054 19.1262 14.356 19.0495C14.7183 18.8648 15.013 18.5701 15.1976 18.2078C15.2744 18.0572 15.3371 17.841 15.3716 17.4188C15.407 16.9855 15.4073 16.4248 15.4073 15.6001V8.65535C15.4073 8.1473 15.402 7.8825 15.3857 7.70368H12.1329C11.8793 7.70368 11.6308 7.70475 11.422 7.68769C11.2019 7.66969 10.9422 7.62706 10.681 7.49397C10.3186 7.30934 10.0239 7.01464 9.8393 6.65232C9.70621 6.39111 9.66358 6.13133 9.64558 5.91129C9.62852 5.70251 9.62959 5.45399 9.62959 5.20036V1.94661C9.51694 1.93634 9.37024 1.93004 9.15 1.9278L8.67792 1.92592H5.58498C4.76031 1.92592 4.19963 1.92626 3.76626 1.96166C3.34409 1.99615 3.12788 2.05889 2.97728 2.13563C2.61496 2.32026 2.32026 2.61496 2.13563 2.97728C2.05889 3.12788 1.99615 3.34409 1.96166 3.76626C1.92626 4.19963 1.92592 4.76031 1.92592 5.58498V15.6001ZM11.5555 5.20036C11.5555 5.48566 11.5567 5.64203 11.5659 5.75425C11.5662 5.7582 11.5665 5.76196 11.5668 5.76553C11.5707 5.76589 11.5747 5.76706 11.579 5.76741C11.6912 5.77658 11.8476 5.77776 12.1329 5.77776H14.0457L11.5555 3.28761V5.20036Z" fill="#2E3033"/>
</svg>
